<mxfile host="app.diagrams.net" modified="2024-02-17T19:02:07.088Z" agent="Mozilla/5.0 (Macintosh; Intel Mac OS X 10_15_7) AppleWebKit/537.36 (KHTML, like Gecko) Chrome/121.0.0.0 Safari/537.36" etag="06DvsVAYcDYIXmVPA-TZ" version="23.1.5" type="device">
  <diagram name="Page-1" id="QZ_3309m6VUfbGXqwZUX">
    <mxGraphModel dx="892" dy="502" grid="1" gridSize="10" guides="1" tooltips="1" connect="1" arrows="1" fold="1" page="1" pageScale="1" pageWidth="850" pageHeight="1100" math="0" shadow="0">
      <root>
        <mxCell id="0" />
        <mxCell id="1" parent="0" />
        <mxCell id="c-WzAGJLJr9QNkhwMj-K-1" value="" style="rounded=0;whiteSpace=wrap;html=1;" vertex="1" parent="1">
          <mxGeometry x="240" y="80" width="370" height="360" as="geometry" />
        </mxCell>
        <mxCell id="c-WzAGJLJr9QNkhwMj-K-3" value="Import Code" style="rounded=1;whiteSpace=wrap;html=1;" vertex="1" parent="1">
          <mxGeometry x="510" y="350" width="90" height="20" as="geometry" />
        </mxCell>
        <mxCell id="c-WzAGJLJr9QNkhwMj-K-4" value="Export Code" style="rounded=1;whiteSpace=wrap;html=1;" vertex="1" parent="1">
          <mxGeometry x="510" y="380" width="90" height="20" as="geometry" />
        </mxCell>
        <mxCell id="c-WzAGJLJr9QNkhwMj-K-5" value="Clear" style="rounded=1;whiteSpace=wrap;html=1;" vertex="1" parent="1">
          <mxGeometry x="410" y="380" width="90" height="20" as="geometry" />
        </mxCell>
        <mxCell id="c-WzAGJLJr9QNkhwMj-K-6" value="Run" style="rounded=1;whiteSpace=wrap;html=1;" vertex="1" parent="1">
          <mxGeometry x="410" y="350" width="90" height="20" as="geometry" />
        </mxCell>
        <mxCell id="c-WzAGJLJr9QNkhwMj-K-7" value="&lt;div&gt;&lt;span style=&quot;background-color: initial;&quot;&gt;+1007&lt;/span&gt;&lt;br&gt;&lt;/div&gt;&lt;div&gt;+1008&lt;/div&gt;&lt;div&gt;+2007&lt;/div&gt;&lt;div&gt;+2008&lt;/div&gt;&lt;div&gt;+2109&lt;/div&gt;&lt;div&gt;+1109&lt;/div&gt;&lt;div&gt;+4300&lt;/div&gt;&lt;div&gt;+0000&lt;/div&gt;&lt;div&gt;+0000&lt;/div&gt;&lt;div&gt;+0000&lt;/div&gt;&lt;div&gt;-99999&lt;/div&gt;" style="rounded=0;whiteSpace=wrap;html=1;align=left;verticalAlign=top;spacingLeft=5;" vertex="1" parent="1">
          <mxGeometry x="250" y="100" width="150" height="330" as="geometry" />
        </mxCell>
        <mxCell id="c-WzAGJLJr9QNkhwMj-K-13" value="Hello World" style="rounded=0;whiteSpace=wrap;html=1;fontColor=#ffffff;fillColor=#647687;strokeColor=#314354;align=left;verticalAlign=top;spacingLeft=5;" vertex="1" parent="1">
          <mxGeometry x="410" y="100" width="190" height="240" as="geometry" />
        </mxCell>
        <mxCell id="c-WzAGJLJr9QNkhwMj-K-14" value="Code/Memory Input" style="text;html=1;align=center;verticalAlign=middle;whiteSpace=wrap;rounded=0;" vertex="1" parent="1">
          <mxGeometry x="250" y="80" width="150" height="20" as="geometry" />
        </mxCell>
        <mxCell id="c-WzAGJLJr9QNkhwMj-K-15" value="Console Output" style="text;html=1;align=center;verticalAlign=middle;whiteSpace=wrap;rounded=0;" vertex="1" parent="1">
          <mxGeometry x="410" y="80" width="170" height="20" as="geometry" />
        </mxCell>
        <mxCell id="c-WzAGJLJr9QNkhwMj-K-18" value="Exit" style="rounded=1;whiteSpace=wrap;html=1;" vertex="1" parent="1">
          <mxGeometry x="510" y="410" width="90" height="20" as="geometry" />
        </mxCell>
        <mxCell id="c-WzAGJLJr9QNkhwMj-K-19" value="Read Command Popup" style="text;html=1;align=center;verticalAlign=middle;whiteSpace=wrap;rounded=0;fontSize=14;" vertex="1" parent="1">
          <mxGeometry x="50" y="140" width="160" height="30" as="geometry" />
        </mxCell>
        <mxCell id="c-WzAGJLJr9QNkhwMj-K-20" value="" style="rounded=0;whiteSpace=wrap;html=1;" vertex="1" parent="1">
          <mxGeometry x="50" y="170" width="160" height="60" as="geometry" />
        </mxCell>
        <mxCell id="c-WzAGJLJr9QNkhwMj-K-21" value="&lt;i&gt;Input text here&lt;/i&gt;" style="rounded=0;whiteSpace=wrap;html=1;align=left;" vertex="1" parent="1">
          <mxGeometry x="60" y="200" width="140" height="20" as="geometry" />
        </mxCell>
        <mxCell id="c-WzAGJLJr9QNkhwMj-K-22" value="User Input Expected" style="text;html=1;align=center;verticalAlign=middle;whiteSpace=wrap;rounded=0;" vertex="1" parent="1">
          <mxGeometry x="60" y="170" width="140" height="30" as="geometry" />
        </mxCell>
        <mxCell id="c-WzAGJLJr9QNkhwMj-K-23" value="" style="edgeStyle=segmentEdgeStyle;endArrow=classic;html=1;curved=0;rounded=0;endSize=8;startSize=8;sourcePerimeterSpacing=0;targetPerimeterSpacing=0;entryX=0.5;entryY=0;entryDx=0;entryDy=0;" edge="1" parent="1" target="c-WzAGJLJr9QNkhwMj-K-19">
          <mxGeometry width="100" relative="1" as="geometry">
            <mxPoint x="230" y="110" as="sourcePoint" />
            <mxPoint x="120" y="130" as="targetPoint" />
            <Array as="points">
              <mxPoint x="130" y="110" />
            </Array>
          </mxGeometry>
        </mxCell>
      </root>
    </mxGraphModel>
  </diagram>
</mxfile>
